<svg id="Layer_1" data-name="Layer 1" xmlns="http://www.w3.org/2000/svg" viewBox="0 0 125.88 129.49"><defs><style>.cls-1{fill:#e5e5e5;}.cls-2{fill:#fff;}.cls-3{fill:silver;}.cls-10,.cls-4{fill:none;stroke:#e8e8e8;stroke-linecap:round;}.cls-4{stroke-linejoin:round;stroke-width:2.92px;}.cls-5{fill:#00e5d0;}.cls-6{fill:#fcfcfc;}.cls-7{fill:#515151;}.cls-8{fill:#868686;}.cls-9{fill:#c5c5c5;}.cls-10{stroke-linejoin:bevel;stroke-width:2.94px;}</style></defs><title>Artboard 1</title><path id="Path_1184" data-name="Path 1184" class="cls-1" d="M87.92,91.68l-55,.06A2.89,2.89,0,0,1,30,88.85h0l0-16.31a2.89,2.89,0,0,1,2.89-2.9h0l55-.06a2.89,2.89,0,0,1,2.9,2.89h0l0,16.31A2.93,2.93,0,0,1,87.92,91.68Z"/><path id="Path_1185" data-name="Path 1185" class="cls-2" d="M81.78,129.49l-43.39-.27a3.73,3.73,0,0,1-3.67-3.71l.33-54.85A3.73,3.73,0,0,1,38.76,67l43.39.27A3.71,3.71,0,0,1,85.81,71l-.32,54.85a3.69,3.69,0,0,1-3.7,3.67Z"/><ellipse id="Ellipse_378" data-name="Ellipse 378" class="cls-3" cx="61.12" cy="66.23" rx="17.53" ry="26.02" transform="translate(-9.52 122.19) rotate(-85.68)"/><path id="Path_1193" data-name="Path 1193" class="cls-2" d="M2.88,66.5c1.36,9.11,16.56,25.13,33.25,26.42a.82.82,0,0,0,.9-.75A1,1,0,0,0,37,92L35.44,76.85a.8.8,0,0,0-.51-.66c-2.4-1-16.82-7.39-18.22-16.86v.05l-1.35-8.89A7.77,7.77,0,0,0,6.58,44h0a7.81,7.81,0,0,0-6.5,8.82"/><path id="Path_1194" data-name="Path 1194" class="cls-1" d="M49.66,123.46l-7.25-.06a.33.33,0,0,1-.33-.33h0l0-4.47a.34.34,0,0,1,.34-.33h0l7.24.06a.32.32,0,0,1,.33.33h0l0,4.47A.37.37,0,0,1,49.66,123.46Z"/><path id="Path_1195" data-name="Path 1195" class="cls-1" d="M63.58,123.52l-7-.06a.47.47,0,0,1-.47-.47l.06-9.44a.48.48,0,0,1,.47-.47l7,.06a.47.47,0,0,1,.47.47l-.06,9.44A.51.51,0,0,1,63.58,123.52Z"/><path id="Path_1196" data-name="Path 1196" class="cls-1" d="M77.52,123.65l-7.25-.05a.33.33,0,0,1-.33-.34h0l0-4.46a.33.33,0,0,1,.34-.33h0l7.25,0a.32.32,0,0,1,.32.34h0l0,4.46A.35.35,0,0,1,77.52,123.65Z"/><path id="Path_1197" data-name="Path 1197" class="cls-4" d="M1.89,59.43s9.18,2.62,14-3.25"/><path id="Path_1198" data-name="Path 1198" class="cls-5" d="M26.76,71.84,16.91,85.18l3.41,2.38,10-13.6Z"/><circle id="Ellipse_379" data-name="Ellipse 379" class="cls-6" cx="63.23" cy="40.22" r="40.22"/><circle id="Ellipse_380" data-name="Ellipse 380" class="cls-7" cx="62.17" cy="44.51" r="31.14"/><circle id="Ellipse_381" data-name="Ellipse 381" class="cls-8" cx="68.1" cy="42.2" r="17.17"/><circle id="Ellipse_382" data-name="Ellipse 382" class="cls-2" cx="69.43" cy="29.38" r="2.58"/><g id="Group_3018" data-name="Group 3018"><path id="Path_1199" data-name="Path 1199" class="cls-2" d="M75.14,31.26a7.84,7.84,0,0,1,1.74.92A7.68,7.68,0,0,1,78,33.32c1.64,1.88,3.32,3.89,3.73,6.34"/><path id="Path_1200" data-name="Path 1200" class="cls-2" d="M74.53,32.6a8.92,8.92,0,0,1,3.53,3.06,10.46,10.46,0,0,1,2.26,4.18c.35,1.84,3.28,1.56,2.9-.28a13.12,13.12,0,0,0-2.79-5.62,11.92,11.92,0,0,0-4.68-4c-1.73-.77-3,1.89-1.22,2.63Z"/></g><path id="Path_1201" data-name="Path 1201" class="cls-6" d="M22.56,50.13H21.08a3,3,0,0,1-2.93-3h0l.12-16.91a3,3,0,0,1,3-2.95h1.48a2.94,2.94,0,0,1,2.92,3h0l-.11,16.92A3,3,0,0,1,22.56,50.13Z"/><path id="Path_1202" data-name="Path 1202" class="cls-7" d="M21.1,46h-.3a1.64,1.64,0,0,1-1.61-1.62l.07-11.12a1.64,1.64,0,0,1,1.61-1.61h.3a1.64,1.64,0,0,1,1.61,1.61l-.06,11.15A1.6,1.6,0,0,1,21.11,46Z"/><path id="Path_1203" data-name="Path 1203" class="cls-6" d="M104.05,52h-1.47a2.94,2.94,0,0,1-2.93-3h0l.11-16.91a3,3,0,0,1,3-2.93h1.48a3,3,0,0,1,2.93,3h0L107,49.05A3,3,0,0,1,104.05,52Z"/><path id="Path_1204" data-name="Path 1204" class="cls-7" d="M104.59,47.68h-.15a1.58,1.58,0,0,1-1.56-1.57L103,34.86a1.58,1.58,0,0,1,1.57-1.56h.15a1.58,1.58,0,0,1,1.56,1.57l-.08,11.24a1.55,1.55,0,0,1-1.57,1.56Z"/><g id="Group_3019" data-name="Group 3019"><path id="Path_1206" data-name="Path 1206" class="cls-9" d="M71.17,89.23l-22,0a.34.34,0,0,1-.33-.33h0a.33.33,0,0,1,.33-.33h0l22,0a.33.33,0,0,1,.33.33h0A.33.33,0,0,1,71.17,89.23Z"/><path id="Path_1207" data-name="Path 1207" class="cls-5" d="M71.17,90.94l-22,0a.32.32,0,0,1-.32-.33h0a.33.33,0,0,1,.33-.33h0l22,0a.33.33,0,0,1,.33.33h0A.35.35,0,0,1,71.17,90.94Z"/><path id="Path_1208" data-name="Path 1208" class="cls-9" d="M71.19,92.61l-22,0a.33.33,0,0,1-.33-.33h0a.33.33,0,0,1,.33-.33h0l22,0a.32.32,0,0,1,.32.33h0A.35.35,0,0,1,71.19,92.61Z"/><path id="Path_1209" data-name="Path 1209" class="cls-9" d="M71.18,94.31l-22,0a.32.32,0,0,1-.32-.33h0a.33.33,0,0,1,.33-.33h0l22,0a.33.33,0,0,1,.33.33h0A.36.36,0,0,1,71.18,94.31Z"/><path id="Path_1210" data-name="Path 1210" class="cls-9" d="M71.17,96l-22,0a.33.33,0,0,1-.33-.33h0a.33.33,0,0,1,.33-.33h0l22,0a.33.33,0,0,1,.33.33h0a.31.31,0,0,1-.28.33Z"/><path id="Path_1211" data-name="Path 1211" class="cls-1" d="M65.66,99.56H54.6a.26.26,0,0,1-.25-.24v-.21a.26.26,0,0,1,.24-.24H65.66a.27.27,0,0,1,.25.25v.2A.24.24,0,0,1,65.66,99.56Z"/><path id="Path_1212" data-name="Path 1212" class="cls-1" d="M65.68,101.23H54.61a.27.27,0,0,1-.24-.25v-.2a.28.28,0,0,1,.25-.25H65.68a.27.27,0,0,1,.25.25v.2a.24.24,0,0,1-.24.24Z"/><path id="Path_1213" data-name="Path 1213" class="cls-1" d="M65.67,102.93H54.61a.28.28,0,0,1-.25-.25v-.2a.26.26,0,0,1,.24-.25H65.68a.26.26,0,0,1,.24.24v.21A.29.29,0,0,1,65.67,102.93Z"/><path id="Path_1214" data-name="Path 1214" class="cls-1" d="M65.66,104.61H54.6a.27.27,0,0,1-.25-.24v-.21a.26.26,0,0,1,.25-.24h11a.27.27,0,0,1,.25.25v.2a.22.22,0,0,1-.2.24Z"/><path id="Path_1215" data-name="Path 1215" class="cls-1" d="M65.68,106.31H54.62a.27.27,0,0,1-.25-.25v-.2a.26.26,0,0,1,.25-.24H65.69a.27.27,0,0,1,.24.25v.2A.3.3,0,0,1,65.68,106.31Z"/></g><path id="Path_1216" data-name="Path 1216" class="cls-1" d="M77.48,125.77l-35.19-.21a.35.35,0,0,1-.33-.34h0v0a.34.34,0,0,1,.34-.33h0l35.18.22a.33.33,0,0,1,.33.33h0v0A.37.37,0,0,1,77.48,125.77Z"/><path id="Path_1217" data-name="Path 1217" class="cls-2" d="M119.78,73.84c-3.24,8.62-21.46,21.13-38,18.91a.82.82,0,0,1-.72-.91,1.16,1.16,0,0,1,0-.18L85.79,77.2a.86.86,0,0,1,.63-.55c2.57-.48,18-3.71,21.35-12.67l0,.05,3.17-8.42a7.77,7.77,0,0,1,10-4.52h0A7.78,7.78,0,0,1,125.4,61"/><path id="Path_1218" data-name="Path 1218" class="cls-10" d="M122.48,67.22s-9.62.62-13.17-6.15"/><path id="Path_1219" data-name="Path 1219" class="cls-5" d="M95.31,74.1l6.86,15.1-3.84,1.6L91.45,75.42Z"/><path id="Path_1220" data-name="Path 1220" class="cls-8" d="M20.54,33l-.06,11.66a.21.21,0,0,1-.2.22H20.2a.22.22,0,0,1-.22-.2L20,33.06a.22.22,0,0,1,.2-.22h.08A.22.22,0,0,1,20.54,33Z"/><path id="Path_1221" data-name="Path 1221" class="cls-8" d="M21.77,33.06l-.06,11.66a.22.22,0,0,1-.2.22h-.07a.22.22,0,0,1-.22-.2l.06-11.67a.22.22,0,0,1,.2-.22h.08a.19.19,0,0,1,.21.18Z"/><g id="Group_3020" data-name="Group 3020"><path id="Path_1222" data-name="Path 1222" class="cls-8" d="M104.23,34.69l-.06,11.66a.23.23,0,0,1-.2.22h-.07a.21.21,0,0,1-.22-.2l.06-11.67a.21.21,0,0,1,.2-.22H104a.2.2,0,0,1,.22.18Z"/><path id="Path_1223" data-name="Path 1223" class="cls-8" d="M105.46,34.69l-.06,11.66a.21.21,0,0,1-.2.22h-.07a.22.22,0,0,1-.22-.2L105,34.72a.2.2,0,0,1,.2-.22h.07a.2.2,0,0,1,.22.18Z"/></g><path id="Path_1233" data-name="Path 1233" class="cls-9" d="M63.12,115.33h-6a.19.19,0,0,1-.19-.18v-.32a.19.19,0,0,1,.18-.19h6a.19.19,0,0,1,.19.18v.32A.19.19,0,0,1,63.12,115.33Z"/><path id="Path_1234" data-name="Path 1234" class="cls-9" d="M63.11,117h-6a.2.2,0,0,1-.2-.18v-.32a.19.19,0,0,1,.18-.19h6a.19.19,0,0,1,.19.18v.32a.18.18,0,0,1-.13.19Z"/><path id="Path_1235" data-name="Path 1235" class="cls-9" d="M63.13,118.71h-6a.19.19,0,0,1-.19-.18v-.32a.18.18,0,0,1,.18-.19h6a.2.2,0,0,1,.19.19v.32A.21.21,0,0,1,63.13,118.71Z"/><path id="Path_1236" data-name="Path 1236" class="cls-9" d="M63.12,120.38h-6a.21.21,0,0,1-.2-.19v-.32a.19.19,0,0,1,.18-.19h6a.19.19,0,0,1,.19.18v.32a.16.16,0,0,1-.12.19S63.14,120.39,63.12,120.38Z"/><path id="Path_1237" data-name="Path 1237" class="cls-9" d="M63.12,122.08h-6a.19.19,0,0,1-.19-.19v-.32a.2.2,0,0,1,.19-.19h6a.18.18,0,0,1,.19.18v.32a.17.17,0,0,1-.16.19Z"/><path id="Path_1238" data-name="Path 1238" class="cls-9" d="M49.08,120.41H43a.19.19,0,0,1-.19-.18v-.32a.19.19,0,0,1,.18-.19h6a.2.2,0,0,1,.2.18v.32A.19.19,0,0,1,49.08,120.41Z"/><path id="Path_1239" data-name="Path 1239" class="cls-9" d="M49.07,122.08H43a.2.2,0,0,1-.2-.19v-.32a.19.19,0,0,1,.18-.19h6a.19.19,0,0,1,.19.18v.32a.17.17,0,0,1-.13.19A.06.06,0,0,1,49.07,122.08Z"/><path id="Path_1240" data-name="Path 1240" class="cls-9" d="M77,120.63h-6a.19.19,0,0,1-.19-.18v-.32a.18.18,0,0,1,.18-.19h6a.19.19,0,0,1,.19.19v.32A.19.19,0,0,1,77,120.63Z"/><path id="Path_1241" data-name="Path 1241" class="cls-9" d="M76.94,122.3h-6a.19.19,0,0,1-.19-.18v-.32a.2.2,0,0,1,.19-.19h6a.18.18,0,0,1,.19.18v.32a.16.16,0,0,1-.13.19S77,122.31,76.94,122.3Z"/></svg>