<svg xmlns="http://www.w3.org/2000/svg" width="129.164" height="156.836" viewBox="0 0 129.164 156.836">
  <g id="Group_10623" data-name="Group 10623" transform="translate(-4231.206 19861.316)">
    <path id="Path_1184" data-name="Path 1184" d="M164.342,298.578l-54.782-5.321a2.893,2.893,0,0,1-2.6-3.163l1.569-16.233a2.893,2.893,0,0,1,3.163-2.6l54.782,5.321a2.893,2.893,0,0,1,2.6,3.163l-1.569,16.234A2.922,2.922,0,0,1,164.342,298.578Z" transform="matrix(0.996, -0.087, 0.087, 0.996, 4129.606, -20025.578)" fill="#272727"/>
    <path id="Path_5641" data-name="Path 5641" d="M19.841,55.922l-9.508,66.92H93.973L91.61,59.16Z" transform="matrix(0.996, -0.087, 0.087, 0.996, 4227.857, -19828.658)" fill="#211d22"/>
    <ellipse id="Ellipse_378" data-name="Ellipse 378" cx="17.533" cy="26.018" rx="17.533" ry="26.018" transform="translate(4265.385 -19752.961) rotate(-85.072)" fill="#272727"/>
    <path id="Path_1193" data-name="Path 1193" d="M1.421,178.719c.466,9.2,14.026,26.631,30.505,29.549a.828.828,0,0,0,.981-.834l-.1-15.228a.791.791,0,0,0-.441-.711c-2.281-1.251-16.013-9-16.479-18.563v.049l-.466-8.975a7.781,7.781,0,0,0-8.117-7.332h0a7.819,7.819,0,0,0-7.332,8.141" transform="matrix(0.996, -0.087, 0.087, 0.996, 4217.585, -19946.459)" fill="#1a1b1f"/>
    <path id="Path_1194" data-name="Path 1194" d="M149.9,478.352l-7.209-.76a.333.333,0,0,1-.294-.368l.466-4.439a.333.333,0,0,1,.368-.294l7.209.76a.333.333,0,0,1,.294.368l-.466,4.438A.369.369,0,0,1,149.9,478.352Z" transform="matrix(0.996, -0.087, 0.087, 0.996, 4089.72, -20174.561)" fill="#313438"/>
    <path id="Path_1195" data-name="Path 1195" d="M206.85,468.153l-6.94-.736a.47.47,0,0,1-.417-.515l.981-9.392a.47.47,0,0,1,.515-.417l6.94.736a.47.47,0,0,1,.417.515l-.981,9.392A.5.5,0,0,1,206.85,468.153Z" transform="matrix(0.996, -0.087, 0.087, 0.996, 4047.797, -20159.227)" fill="#313438"/>
    <path id="Path_1196" data-name="Path 1196" d="M262.9,490.253l-7.21-.76a.333.333,0,0,1-.294-.368l.466-4.439a.333.333,0,0,1,.368-.294l7.209.76a.333.333,0,0,1,.294.368l-.466,4.438A.37.37,0,0,1,262.9,490.253Z" transform="matrix(0.996, -0.087, 0.087, 0.996, 4003.971, -20176.074)" fill="#313438"/>
    <path id="Path_1197" data-name="Path 1197" d="M4.7,211.764s8.5,3.507,13.638-1.864" transform="matrix(0.996, -0.087, 0.087, 0.996, 4210.827, -19986.201)" fill="none" stroke="#232323" stroke-linecap="round" stroke-linejoin="round" stroke-miterlimit="10" stroke-width="2.92"/>
    <path id="Path_1198" data-name="Path 1198" d="M66.508,277.8,55.4,290.11l3.163,2.7,11.231-12.555Z" transform="matrix(0.996, -0.087, 0.087, 0.996, 4167.935, -20033.895)" fill="#fe6384"/>
    <circle id="Ellipse_379" data-name="Ellipse 379" cx="40.216" cy="40.216" r="40.216" transform="matrix(0.996, -0.087, 0.087, 0.996, 4251.635, -19830.738)" fill="#3f464e"/>
    <path id="Path_1185" data-name="Path 1185" d="M81.78,129.49l-43.39-.27a3.73,3.73,0,0,1-3.67-3.71l.33-54.85A3.73,3.73,0,0,1,38.76,67l43.39.27A3.71,3.71,0,0,1,85.81,71l-.32,54.85a3.69,3.69,0,0,1-3.7,3.67Z" transform="translate(4231 -19834)" fill="#191a1f"/>
    <path id="Path_5635" data-name="Path 5635" d="M3020.465-20027.254l-52.549-21.354,14.772-44.09s-.916-48.094,37.777-49.158" transform="matrix(0.999, 0.035, -0.035, 0.999, 574.953, 165.911)" fill="#161617"/>
    <path id="Path_5636" data-name="Path 5636" d="M2967.916-20027.254l52.549-21.354-14.772-44.09s.916-48.094-37.777-49.158" transform="matrix(0.999, 0.035, -0.035, 0.999, 627.441, 167.744)" fill="#161617"/>
    <circle id="Ellipse_380" data-name="Ellipse 380" cx="31.143" cy="31.143" r="31.143" transform="matrix(0.996, -0.087, 0.087, 0.996, 4260.362, -19818.209)" fill="#232323"/>
    <circle id="Ellipse_381" data-name="Ellipse 381" cx="17.165" cy="17.165" r="17.165" transform="matrix(0.996, -0.087, 0.087, 0.996, 4281.461, -19807.748)" fill="#272727"/>
    <circle id="Ellipse_382" data-name="Ellipse 382" cx="2.575" cy="2.575" r="2.575" transform="matrix(0.996, -0.087, 0.087, 0.996, 4298.732, -19807.289)" fill="#fe6384"/>
    <path id="Path_1199" data-name="Path 1199" d="M313.2,132.4a7.61,7.61,0,0,1,1.643,1.079,8.453,8.453,0,0,1,1.03,1.251c1.447,2.035,2.918,4.193,3.09,6.67" transform="matrix(0.996, -0.087, 0.087, 0.996, 3983.658, -19907.609)" fill="#fe6384"/>
    <path id="Path_1200" data-name="Path 1200" d="M307.991,129.276a8.879,8.879,0,0,1,3.212,3.384,10.38,10.38,0,0,1,1.839,4.389c.171,1.864,3.114,1.864,2.918,0a13.1,13.1,0,0,0-2.232-5.861,11.9,11.9,0,0,0-4.267-4.414c-1.643-.932-3.114,1.594-1.471,2.5Z" transform="matrix(0.996, -0.087, 0.087, 0.996, 3988.498, -19903.615)" fill="#fe6384"/>
    <path id="Path_1201" data-name="Path 1201" d="M79.644,117.616l-1.471-.147a2.946,2.946,0,0,1-2.624-3.237L77.314,97.41a2.982,2.982,0,0,1,3.237-2.648l1.471.147a2.946,2.946,0,0,1,2.624,3.237l-1.766,16.822A2.982,2.982,0,0,1,79.644,117.616Z" transform="matrix(0.996, -0.087, 0.087, 0.996, 4164.839, -19894.934)" fill="#272727"/>
    <path id="Path_1202" data-name="Path 1202" d="M82.623,126.778l-.294-.025a1.636,1.636,0,0,1-1.447-1.766l1.153-11.059a1.636,1.636,0,0,1,1.766-1.447l.294.025a1.636,1.636,0,0,1,1.447,1.766l-1.152,11.084A1.6,1.6,0,0,1,82.623,126.778Z" transform="matrix(0.996, -0.087, 0.087, 0.996, 4159.655, -19907.91)" fill="#3f464e"/>
    <path id="Path_1203" data-name="Path 1203" d="M409.644,157.679l-1.471-.147a2.946,2.946,0,0,1-2.624-3.237l1.766-16.822a2.946,2.946,0,0,1,3.237-2.624l1.471.147a2.946,2.946,0,0,1,2.624,3.237l-1.766,16.822A2.981,2.981,0,0,1,409.644,157.679Z" transform="matrix(0.996, -0.087, 0.087, 0.996, 3914.073, -19903.363)" fill="#272727"/>
    <path id="Path_1204" data-name="Path 1204" d="M421.426,166.7l-.147-.024a1.583,1.583,0,0,1-1.4-1.717l1.177-11.182a1.584,1.584,0,0,1,1.717-1.4l.147.024a1.584,1.584,0,0,1,1.4,1.717L423.143,165.3A1.566,1.566,0,0,1,421.426,166.7Z" transform="matrix(0.996, -0.087, 0.087, 0.996, 3902.134, -19915.611)" fill="#3f464e"/>
    <path id="Path_1205" data-name="Path 1205" d="M269.5,354.5" transform="matrix(0.996, -0.087, 0.087, 0.996, 4001.906, -20077.482)" fill="#c5c5c5"/>
    <path id="Path_1206" data-name="Path 1206" d="M205.758,357.561l-21.873-2.109a.329.329,0,0,1-.294-.368h0a.329.329,0,0,1,.368-.294l21.873,2.109a.329.329,0,0,1,.294.368h0A.348.348,0,0,1,205.758,357.561Z" transform="matrix(0.996, -0.087, 0.087, 0.996, 4066.485, -20083.35)" fill="#63636e"/>
    <path id="Path_1207" data-name="Path 1207" d="M205.058,364.462l-21.873-2.109a.33.33,0,0,1-.294-.368h0a.329.329,0,0,1,.368-.294l21.873,2.109a.329.329,0,0,1,.294.368h0A.335.335,0,0,1,205.058,364.462Z" transform="matrix(0.996, -0.087, 0.087, 0.996, 4066.558, -20088.584)" fill="#fe6384"/>
    <path id="Path_1208" data-name="Path 1208" d="M204.458,371.261l-21.873-2.109a.329.329,0,0,1-.294-.368h0a.329.329,0,0,1,.368-.294l21.874,2.109a.329.329,0,0,1,.294.368h0A.348.348,0,0,1,204.458,371.261Z" transform="matrix(0.996, -0.087, 0.087, 0.996, 4066.562, -20093.736)" fill="#63636e"/>
    <path id="Path_1209" data-name="Path 1209" d="M203.758,378.161l-21.874-2.109a.329.329,0,0,1-.294-.368h0a.329.329,0,0,1,.368-.294l21.873,2.109a.329.329,0,0,1,.294.368h0A.347.347,0,0,1,203.758,378.161Z" transform="matrix(0.996, -0.087, 0.087, 0.996, 4066.634, -20098.971)" fill="#63636e"/>
    <path id="Path_1210" data-name="Path 1210" d="M203.058,384.961l-21.874-2.109a.329.329,0,0,1-.294-.368h0a.329.329,0,0,1,.368-.294l21.874,2.109a.329.329,0,0,1,.294.368h0A.306.306,0,0,1,203.058,384.961Z" transform="matrix(0.996, -0.087, 0.087, 0.996, 4066.713, -20104.129)" fill="#63636e"/>
    <path id="Path_1211" data-name="Path 1211" d="M212.931,400.366l-11.01-1.079a.266.266,0,0,1-.221-.27l.025-.2a.267.267,0,0,1,.27-.221L213,399.679a.267.267,0,0,1,.221.27l-.025.2A.25.25,0,0,1,212.931,400.366Z" transform="matrix(0.996, -0.087, 0.087, 0.996, 4049.984, -20115.102)" fill="#3498db"/>
    <path id="Path_1212" data-name="Path 1212" d="M212.331,407.166l-11.01-1.079a.267.267,0,0,1-.221-.27l.024-.2a.267.267,0,0,1,.27-.221l11.01,1.079a.267.267,0,0,1,.221.27l-.025.2A.244.244,0,0,1,212.331,407.166Z" transform="matrix(0.996, -0.087, 0.087, 0.996, 4049.988, -20120.254)" fill="#3498db"/>
    <path id="Path_1213" data-name="Path 1213" d="M211.631,414.065l-11.01-1.079a.267.267,0,0,1-.221-.27l.025-.2a.266.266,0,0,1,.27-.221l11.01,1.079a.267.267,0,0,1,.221.27l-.025.2A.287.287,0,0,1,211.631,414.065Z" transform="matrix(0.996, -0.087, 0.087, 0.996, 4050.06, -20125.488)" fill="#63636e"/>
    <path id="Path_1214" data-name="Path 1214" d="M210.931,420.865l-11.01-1.079a.267.267,0,0,1-.221-.27l.025-.2a.267.267,0,0,1,.27-.221L211,420.179a.267.267,0,0,1,.221.27l-.025.2A.221.221,0,0,1,210.931,420.865Z" transform="matrix(0.996, -0.087, 0.087, 0.996, 4050.139, -20130.646)" fill="#63636e"/>
    <path id="Path_1215" data-name="Path 1215" d="M210.331,427.766l-11.01-1.079a.267.267,0,0,1-.221-.27l.025-.2a.267.267,0,0,1,.27-.221l11.01,1.079a.267.267,0,0,1,.221.27l-.025.2A.288.288,0,0,1,210.331,427.766Z" transform="matrix(0.996, -0.087, 0.087, 0.996, 4050.136, -20135.875)" fill="#63636e"/>
    <path id="Path_1216" data-name="Path 1216" d="M176.379,503.456,141.386,499.8a.333.333,0,0,1-.294-.368v-.049a.333.333,0,0,1,.368-.294l34.993,3.654a.333.333,0,0,1,.294.368v.049A.39.39,0,0,1,176.379,503.456Z" transform="matrix(0.996, -0.087, 0.087, 0.996, 4088.948, -20194.646)" fill="#63636e"/>
    <path id="Path_1220" data-name="Path 1220" d="M85.692,117.121l-1.2,11.6a.215.215,0,0,1-.221.2H84.2a.215.215,0,0,1-.2-.221l1.2-11.6a.215.215,0,0,1,.221-.2H85.5A.215.215,0,0,1,85.692,117.121Z" transform="matrix(0.996, -0.087, 0.087, 0.996, 4157.015, -19911.031)" fill="#00e1ca"/>
    <path id="Path_1221" data-name="Path 1221" d="M90.692,117.721l-1.2,11.6a.215.215,0,0,1-.221.2H89.2a.215.215,0,0,1-.2-.221l1.2-11.6a.215.215,0,0,1,.221-.2H90.5A.2.2,0,0,1,90.692,117.721Z" transform="matrix(0.996, -0.087, 0.087, 0.996, 4153.216, -19911.154)" fill="#00e1ca"/>
    <path id="Path_1222" data-name="Path 1222" d="M424.692,157.221l-1.2,11.6a.215.215,0,0,1-.221.2H423.2a.215.215,0,0,1-.2-.221l1.2-11.6a.215.215,0,0,1,.221-.2h.073A.2.2,0,0,1,424.692,157.221Z" transform="matrix(0.996, -0.087, 0.087, 0.996, 3899.48, -19918.881)" fill="#00e1ca"/>
    <path id="Path_1223" data-name="Path 1223" d="M429.692,157.721l-1.2,11.6a.215.215,0,0,1-.22.2H428.2a.215.215,0,0,1-.2-.221l1.2-11.6a.215.215,0,0,1,.221-.2h.073A.2.2,0,0,1,429.692,157.721Z" transform="matrix(0.996, -0.087, 0.087, 0.996, 3895.688, -19918.928)" fill="#00e1ca"/>
    <path id="Intersection_7" data-name="Intersection 7" d="M25.929,54.333a28.3,28.3,0,0,0-7.223-4.494,23.965,23.965,0,0,0-7.623-1.4,15.4,15.4,0,0,0-5.09.758A29.289,29.289,0,0,0,0,52.252V0C38.585,1.15,37.673,49.157,37.673,49.157L52.122,92.282C39.148,65.828,25.929,54.333,25.929,54.333Z" transform="matrix(1, 0.017, -0.017, 1, 4295.311, -19860.406)" fill="#211d22"/>
    <path id="Intersection_8" data-name="Intersection 8" d="M25.929,37.949a28.3,28.3,0,0,1-7.223,4.494,23.965,23.965,0,0,1-7.623,1.4,15.4,15.4,0,0,1-5.09-.758A29.289,29.289,0,0,1,0,40.03V92.282c38.585-1.15,37.673-49.157,37.673-49.157L52.122,0C39.148,26.454,25.929,37.949,25.929,37.949Z" transform="matrix(-1, -0.017, 0.017, -1, 4293.647, -19768.139)" fill="#292e31"/>
    <path id="Path_1233" data-name="Path 1233" d="M211.88,464.875l-6.008-.588a.189.189,0,0,1-.172-.2l.025-.319a.19.19,0,0,1,.2-.172l6.008.589a.189.189,0,0,1,.172.2l-.025.319A.189.189,0,0,1,211.88,464.875Z" transform="matrix(0.996, -0.087, 0.087, 0.996, 4042.701, -20163.713)" fill="#63636e"/>
    <path id="Path_1217" data-name="Path 1217" d="M353.226,251.235c-4.071,8.264-23.418,18.931-39.7,15.105a.821.821,0,0,1-.564-1.153l6.106-13.928a.849.849,0,0,1,.686-.49c2.6-.221,18.244-1.937,22.487-10.52l-.024.049,3.973-8.068a7.779,7.779,0,0,1,10.348-3.531h0a7.779,7.779,0,0,1,3.531,10.348" transform="matrix(0.996, -0.087, 0.087, 0.996, 3977.612, -19979.451)" fill="#1a1b1f"/>
    <path id="Path_1218" data-name="Path 1218" d="M450.366,273.56S442.378,273.277,440,267" transform="matrix(0.996, -0.087, 0.087, 0.996, 3879.655, -19999.063)" fill="none" stroke="#232323" stroke-linecap="round" stroke-linejoin="bevel" stroke-miterlimit="10" stroke-width="2.936"/>
    <path id="Path_1219" data-name="Path 1219" d="M365.772,314.3l5.346,15.694-3.973,1.226L361.8,315.232Z" transform="matrix(0.996, -0.087, 0.087, 0.996, 3935.149, -20041.184)" fill="#fe6384"/>
    <path id="Path_1234" data-name="Path 1234" d="M211.18,471.675l-6.008-.589a.189.189,0,0,1-.172-.2l.025-.319a.19.19,0,0,1,.2-.172l6.008.589a.189.189,0,0,1,.172.2l-.024.319A.162.162,0,0,1,211.18,471.675Z" transform="matrix(0.996, -0.087, 0.087, 0.996, 4042.78, -20168.871)" fill="#63636e"/>
    <path id="Path_1235" data-name="Path 1235" d="M210.579,478.575l-6.008-.589a.19.19,0,0,1-.172-.2l.025-.319a.19.19,0,0,1,.2-.172l6.008.588a.19.19,0,0,1,.172.2l-.025.319A.208.208,0,0,1,210.579,478.575Z" transform="matrix(0.996, -0.087, 0.087, 0.996, 4042.777, -20174.1)" fill="#63636e"/>
    <path id="Path_1236" data-name="Path 1236" d="M209.879,485.375l-6.008-.588a.19.19,0,0,1-.172-.2l.025-.319a.189.189,0,0,1,.2-.172l6.008.588a.19.19,0,0,1,.172.2l-.025.318A.162.162,0,0,1,209.879,485.375Z" transform="matrix(0.996, -0.087, 0.087, 0.996, 4042.856, -20179.258)" fill="#63636e"/>
    <path id="Path_1237" data-name="Path 1237" d="M209.179,492.275l-6.008-.588a.189.189,0,0,1-.172-.2l.025-.319a.19.19,0,0,1,.2-.172l6.008.589a.189.189,0,0,1,.172.2l-.025.319A.175.175,0,0,1,209.179,492.275Z" transform="matrix(0.996, -0.087, 0.087, 0.996, 4042.928, -20184.492)" fill="#63636e"/>
    <path id="Path_1238" data-name="Path 1238" d="M152.879,479.875l-6.008-.588a.19.19,0,0,1-.172-.2l.024-.319a.19.19,0,0,1,.2-.172l6.008.589a.19.19,0,0,1,.172.2l-.025.319A.189.189,0,0,1,152.879,479.875Z" transform="matrix(0.996, -0.087, 0.087, 0.996, 4086.077, -20178.873)" fill="#63636e"/>
    <path id="Path_1239" data-name="Path 1239" d="M152.179,486.675l-6.008-.589a.189.189,0,0,1-.172-.2l.025-.319a.19.19,0,0,1,.2-.172l6.008.589a.189.189,0,0,1,.172.2l-.024.319A.162.162,0,0,1,152.179,486.675Z" transform="matrix(0.996, -0.087, 0.087, 0.996, 4086.156, -20184.031)" fill="#63636e"/>
    <path id="Path_1240" data-name="Path 1240" d="M265.879,491.875l-6.008-.588a.19.19,0,0,1-.172-.2l.024-.319a.19.19,0,0,1,.2-.172l6.008.588a.19.19,0,0,1,.172.2l-.025.319A.19.19,0,0,1,265.879,491.875Z" transform="matrix(0.996, -0.087, 0.087, 0.996, 4000.322, -20180.461)" fill="#63636e"/>
    <path id="Path_1241" data-name="Path 1241" d="M265.18,498.675l-6.008-.589a.189.189,0,0,1-.172-.2l.025-.319a.19.19,0,0,1,.2-.172l6.008.589a.189.189,0,0,1,.172.2l-.024.318A.162.162,0,0,1,265.18,498.675Z" transform="matrix(0.996, -0.087, 0.087, 0.996, 4000.401, -20185.621)" fill="#63636e"/>
    <path id="Path_5637" data-name="Path 5637" d="M20.258,37.244l6.519-14.7-13.491-3.1Z" transform="matrix(0.996, -0.087, 0.087, 0.996, 4226.861, -19828.57)" fill="#25272a"/>
    <path id="Path_5638" data-name="Path 5638" d="M19.805,37.244,13.169,22.119l13.608-2.672Z" transform="translate(4323.563 -19828.545) rotate(7)" fill="#25272c"/>
  </g>
</svg>
